# xmcd
#
# Track frame offsets:
#   150
#   19508
#   37879
#   63853
#
# Disc length: 1154 seconds
#
# Revision: 0
# Processed by: cddbd v1.5.2PL0 Copyright (c) Steve Scherf et al.
# Submitted via: GXTranscoder 2.0.1939
#
DISCID=22048004
DTITLE=Fools'n'town - Tasteful contents
DYEAR=1999
DGENRE=Blues
TTITLE0=House is burning down
TTITLE1=Talkin' woman blues
TTITLE2=On the rise
TTITLE3=The road goes on
EXTD=
EXTT0=
EXTT1=
EXTT2=
EXTT3=
PLAYORDER=
